<?xml version="1.0" encoding="UTF-8"?>
<!DOCTYPE svg PUBLIC "-//W3C//DTD SVG 1.1//EN" "http://www.w3.org/Graphics/SVG/1.1/DTD/svg11.dtd">
<svg xmlns="http://www.w3.org/2000/svg" version="1.1" width="256px" height="256px" style="shape-rendering:geometricPrecision; text-rendering:geometricPrecision; image-rendering:optimizeQuality; fill-rule:evenodd; clip-rule:evenodd" xmlns:xlink="http://www.w3.org/1999/xlink">
<g><path style="opacity:0.985" fill="#e30813" d="M 90.5,59.5 C 104.313,57.4913 112.313,63.3246 114.5,77C 111.988,91.936 103.321,97.2693 88.5,93C 79.3441,87.5374 76.5108,79.7041 80,69.5C 82.7379,65.2595 86.2379,61.9262 90.5,59.5 Z"/></g>
<g><path style="opacity:0.95" fill="#98b126" d="M 134.5,59.5 C 146.308,57.1524 154.475,61.4858 159,72.5C 160.824,81.668 157.658,88.5013 149.5,93C 131.188,97.3501 122.688,90.1834 124,71.5C 126.649,66.6887 130.149,62.6887 134.5,59.5 Z"/></g>
<g><path style="opacity:0.946" fill="#98b127" d="M 19.5,59.5 C 43.0061,86.4962 72.8394,100.163 109,100.5C 133.134,98.7915 157.301,98.2915 181.5,99C 202.397,100.573 221.064,107.74 237.5,120.5C 237.833,121.167 238.167,121.833 238.5,122.5C 236.624,128.126 234.957,133.792 233.5,139.5C 225.932,135.041 218.266,130.541 210.5,126C 192.234,118.514 173.234,115.347 153.5,116.5C 132.173,117.583 110.84,118.083 89.5,118C 59.184,115.093 34.0173,102.259 14,79.5C 15.4867,72.8239 17.3201,66.1573 19.5,59.5 Z"/></g>
<g><path style="opacity:0.989" fill="#e30a14" d="M 84.5,121.5 C 95.7851,122.271 103.618,127.938 108,138.5C 114.267,157.297 117.1,176.63 116.5,196.5C 109.167,196.5 101.833,196.5 94.5,196.5C 94.4437,183.934 92.9437,171.267 90,158.5C 89.0112,153.688 86.8445,149.521 83.5,146C 79.0412,144.017 74.7079,144.35 70.5,147C 65.3656,151.133 60.5323,155.633 56,160.5C 47.713,171.46 40.213,182.96 33.5,195C 26.2534,195.185 19.0867,195.685 12,196.5C 11.8333,195.833 11.6667,195.167 11.5,194.5C 13.6096,187.614 16.7763,181.281 21,175.5C 32.0777,160.42 44.5777,146.587 58.5,134C 64.6697,130.081 71.0031,126.414 77.5,123C 80.0356,122.814 82.369,122.314 84.5,121.5 Z"/></g>
<g><path style="opacity:0.953" fill="#98b127" d="M 155.5,121.5 C 161.511,121.723 167.177,123.223 172.5,126C 199.071,143.071 219.071,165.904 232.5,194.5C 224.855,195.665 217.188,195.831 209.5,195C 200.852,177.028 189.185,161.361 174.5,148C 168.086,142.88 162.253,143.38 157,149.5C 155.275,152.674 153.942,156.007 153,159.5C 151.007,171.754 149.84,184.087 149.5,196.5C 142.167,196.5 134.833,196.5 127.5,196.5C 127.028,178.152 129.195,160.152 134,142.5C 137.203,131.127 144.37,124.127 155.5,121.5 Z"/></g>
</svg>
